<svg width="14" height="12" viewBox="0 0 14 12" fill="none" xmlns="http://www.w3.org/2000/svg">
<path d="M11.6667 11.3334L2.33333 11.3334C1.59695 11.3334 1 10.7364 1 10L1 2.00002C1 1.26364 1.59695 0.666687 2.33333 0.666687L9 0.666687C9.73638 0.666687 10.3333 1.26364 10.3333 2.00002V2.66669M11.6667 11.3334C10.9303 11.3334 10.3333 10.7364 10.3333 10L10.3333 2.66669M11.6667 11.3334C12.403 11.3334 13 10.7364 13 10L13 4.00002C13 3.26364 12.403 2.66669 11.6667 2.66669L10.3333 2.66669M7.66667 0.666687L5 0.666687M3.66667 8.66669L7.66667 8.66669M3.66667 3.33335L7.66667 3.33335L7.66667 6.00002L3.66667 6.00002L3.66667 3.33335Z" stroke="#3B3B3B" stroke-linecap="round" stroke-linejoin="round"/>
</svg>
