<svg width="130" height="26" viewBox="0 0 130 26" fill="none" xmlns="http://www.w3.org/2000/svg">
<g clip-path="url(#clip0_3023_11818)">
<path d="M25.5045 25.24V25.1461C25.5628 25.2306 25.0086 24.358 25.2419 24.7239H25.2225H25.1933L25.135 24.6957L24.9016 24.6019C24.7461 24.5362 24.5905 24.4706 24.4349 24.4612C24.4544 24.4518 24.4446 24.4424 24.4349 24.4236H24.4252C24.7655 24.6113 24.5127 24.4612 24.5905 24.4987V24.4706C24.4155 24.311 24.1627 24.1891 24.0752 24.0296C24.0363 24.0202 24.0752 24.1046 23.9876 24.0389C23.9585 23.992 24.0265 24.0108 23.9876 23.9545C23.9293 23.8794 23.8612 23.8138 23.7932 23.7575C23.939 23.9545 23.764 23.6824 23.7543 23.673C23.6571 23.5229 23.5598 23.3821 23.5015 23.2414C23.482 23.1757 23.4529 22.9974 23.414 22.8755L23.3556 22.6784C23.1028 22.3031 23.1903 22.4814 23.0834 22.3594L22.7431 22.0498C22.6458 21.9747 22.7236 22.0122 22.4805 21.834L22.2764 21.7214V21.7401C22.1694 21.5806 21.7124 21.5619 21.7707 21.4117C21.7124 21.4024 21.6054 21.3179 21.5957 21.3742C21.5568 21.3085 21.4499 21.2522 21.3332 21.1959L21.1679 21.1021C20.6428 20.9144 20.9054 21.027 20.7498 20.9614C20.7692 20.9614 20.7887 20.9614 20.8081 20.9801C20.5359 20.9989 20.322 20.8957 20.04 20.9051C20.0692 20.9144 20.1178 20.9332 20.1178 20.952C20.0011 20.9801 19.8844 20.83 19.8066 20.9238C19.7483 20.9238 19.7775 20.8675 19.8066 20.8675H19.7483C19.6802 20.8206 20.3803 21.2428 20.0789 21.0646V21.0458V21.027L20.0206 20.952L19.9233 20.7925C19.4566 20.4078 19.5636 20.5767 19.3594 20.4359L18.9607 20.2295C18.8538 20.1826 18.9218 20.192 18.6787 20.0981L18.4551 20.0231C17.9981 19.9668 18.3482 20.192 18.0467 20.0231C18.0078 20.0325 18.0467 19.9762 18.0273 19.9949C17.969 19.9668 17.9009 19.9762 17.8425 19.9949C17.7648 19.9949 17.8912 20.0231 17.6578 19.9949C17.6384 19.9949 17.6092 19.9949 17.5897 19.9855C17.6286 19.9199 17.5217 19.948 17.5217 19.9105C17.2397 19.9574 17.1911 20.0137 16.9675 19.9668L16.9869 20.0043C16.7924 19.9011 16.3549 19.9574 16.1313 19.8823C14.7992 20.0606 13.3407 19.9949 11.9405 20.4359C11.2988 20.6236 10.6765 20.7737 10.025 20.9332C9.47082 21.1209 9.36386 21.2053 9.01382 21.3554C8.17762 22.3031 8.85825 21.8621 8.46932 22.2374C8.43043 22.3688 8.41098 22.4345 8.37209 22.4908C8.35264 22.5189 8.32347 22.5471 8.28458 22.5846L8.22624 22.6409L8.18735 22.669C8.38181 22.5846 7.74008 22.8473 8.63462 22.4908H8.61517H8.586C8.60545 22.5095 8.62489 22.5095 8.59572 22.5189C8.57628 22.4439 8.34292 22.5189 8.31375 22.4439H7.93454H7.7498H7.65257C7.44838 22.5095 8.10956 22.2843 7.19558 22.6034L7.17613 22.6221L7.14696 22.6503L6.89415 22.8661L6.76775 22.9787L6.69969 23.035H6.68024V23.0537C6.58301 23.0913 7.56506 22.7441 7.14696 22.8942H7.0789L7.12751 22.913C6.2427 23.2226 6.88443 22.9974 6.68997 23.0631H6.70941L6.72886 23.0819C6.3691 23.2133 7.22474 22.913 7.13724 22.9411H7.12751H7.09834L6.99139 22.8942L6.97194 22.913C6.90388 22.9036 6.82609 22.8661 6.90388 22.8379L6.40799 22.8192C5.81487 22.8567 5.97044 22.8942 5.71764 22.9318L4.79393 23.1945C4.22998 23.354 4.17164 23.476 3.83133 23.6167C3.30627 23.8794 3.30627 24.0014 3.00485 24.1891C2.91734 24.3204 2.46035 24.5362 2.21726 24.677C1.8964 24.9303 1.49774 25.2681 1.25466 25.4088C0.856008 25.5965 0.437908 25.7748 -0.0288086 25.9249C-0.0288086 25.9249 0.214273 26.0469 0.603203 25.9437C1.19632 25.9155 1.68249 25.5214 2.1881 25.2963C2.24643 25.2681 2.09086 25.2306 2.22699 25.1743C2.78121 25.0148 3.41323 24.5269 3.76326 24.0671H3.70492C3.76326 23.9733 4.04524 23.9545 4.12302 23.9076C4.1133 23.8888 4.06468 23.9076 4.07441 23.8701C4.14247 23.9076 4.30777 23.795 4.38555 23.8044C4.41472 23.7668 4.38555 23.7293 4.43417 23.6824L4.54112 23.7105C4.81338 23.7387 5.05646 23.551 5.3676 23.5417C5.34816 23.5323 5.31899 23.5323 5.32871 23.5041C5.83432 23.4666 6.37882 23.2977 6.93305 23.3821C6.9136 23.3634 6.89415 23.3165 6.92332 23.2977C6.90388 23.3728 7.18585 23.3915 7.26364 23.2789C7.23447 23.1945 7.48727 23.1757 7.55534 23.0537H7.52617C7.7498 23.0256 7.51644 22.9036 7.67201 22.9974L7.7498 22.9411C7.80814 23.035 7.93454 22.8942 8.03178 22.9411V22.9599C8.12901 22.9787 8.17762 22.9318 8.26513 22.9599C8.52766 22.9505 8.48877 22.9787 8.7124 22.9411C8.73185 22.8942 8.3332 22.9974 8.50821 22.8848C8.79019 22.7816 8.97493 22.5189 9.1694 22.275C9.28608 21.9747 9.24718 21.7683 9.64584 21.6745C9.69445 21.6182 9.73335 21.59 9.73335 21.5619C9.80141 21.5431 9.9667 21.468 10.0542 21.4774C10.0348 21.4774 10.0639 21.4305 10.1028 21.4117C10.2098 21.3554 10.2681 21.4586 10.3848 21.393C10.3265 21.393 10.2973 21.3742 10.2973 21.3367C10.4334 21.3648 10.5793 21.3179 10.7251 21.2991C10.6959 21.2991 10.6668 21.2991 10.6571 21.271C10.8321 21.2991 10.9196 21.1865 11.0654 21.1959L10.9974 21.1678C11.1821 21.0646 11.0946 21.2335 11.2599 21.1678C11.2113 21.1678 11.221 21.149 11.2016 21.1302C11.4057 21.1584 11.6586 21.0646 11.8336 21.0458L11.8141 21.027C11.9989 20.9895 12.1739 20.9144 12.3878 20.8957C12.4559 20.8581 12.3197 20.8018 12.5142 20.7643C12.5434 20.8488 12.8545 20.708 12.7864 20.83C12.942 20.7643 13.1754 20.6986 13.3018 20.708C13.2143 20.6893 13.3504 20.5954 13.2143 20.6048L13.3018 20.5391C13.3018 20.5391 13.1948 20.5673 13.2143 20.5204C13.2823 20.5204 13.4962 20.511 13.5546 20.4828C13.7004 20.5016 13.8463 20.5954 14.0602 20.586C13.9532 20.5673 14.0991 20.4828 14.031 20.4734L14.3616 20.6048C14.4297 20.6048 14.3616 20.5391 14.4686 20.5485C14.4686 20.5673 14.5172 20.586 14.5464 20.5954C14.5755 20.586 14.8478 20.5954 14.8672 20.5016C14.8964 20.4641 14.7505 20.5016 14.8186 20.4547C14.9547 20.4453 14.9645 20.4734 15.0909 20.4547C15.1686 20.4265 15.3534 20.4547 15.2756 20.511C15.1978 20.5204 15.2853 20.4547 15.1978 20.4922C15.2659 20.5391 15.4409 20.5297 15.5576 20.511C15.509 20.511 15.509 20.4828 15.4895 20.4547C15.684 20.5016 15.8687 20.4922 16.0729 20.5016C16.0826 20.5391 15.9854 20.4359 15.9562 20.4641C16.2382 20.3796 16.4327 20.4641 16.6466 20.3984C16.6077 20.3984 16.6271 20.4547 16.6271 20.4453C16.7535 20.4453 16.7438 20.3796 16.8216 20.3984C16.8216 20.3609 16.9188 20.4078 17.0063 20.4171C17.0452 20.4453 17.0258 20.3984 16.9577 20.3984C17.0161 20.4171 17.1619 20.4359 17.3272 20.4453C17.3564 20.4453 17.5995 20.4641 17.4731 20.4453C17.5508 20.4641 17.6286 20.4734 17.6967 20.4828C17.6773 20.5016 17.8134 20.6048 17.8717 20.6142V20.5579C17.9398 20.5391 18.0662 20.6142 18.0954 20.5767C18.1926 20.6705 17.6481 20.3984 17.7939 20.4922C17.8523 20.4641 17.9884 20.633 17.9884 20.5579C18.0759 20.586 18.2412 20.6986 18.2704 20.6423C18.3287 20.6705 18.2704 20.5673 18.319 20.586C18.4648 20.6611 18.3482 20.6236 18.4551 20.6986L18.5135 20.7549C18.5135 20.7549 18.6496 20.8112 18.5621 20.83C18.6107 20.8018 18.7663 20.952 18.8051 20.8675L18.8343 20.8018C18.8927 20.8394 18.8927 20.9144 18.9218 20.9614C18.9316 20.9614 18.9607 20.9614 18.9607 20.9426C18.9024 21.0364 19.126 21.0083 19.1455 21.1115C19.0288 20.8769 19.2427 21.2991 19.301 21.2522V21.2898C19.0871 21.1678 19.583 21.4587 19.5344 21.4305H19.5441L19.5636 21.4399L19.6511 21.468C19.7094 21.4868 19.7678 21.4962 19.8358 21.4962C19.8066 21.4868 19.7775 21.4774 19.7678 21.4493C19.865 21.4305 19.8747 21.4586 19.9525 21.4868C19.9428 21.468 20.1372 21.4493 20.2442 21.4211C20.3609 21.468 20.3025 21.5149 20.3123 21.5525C20.3609 21.4586 20.8179 21.6838 20.604 21.5619C20.604 21.5431 20.5748 21.5149 20.5651 21.4868C20.7692 21.5525 20.7304 21.5149 20.6137 21.4587C20.7887 21.4399 20.7109 21.6275 20.8957 21.6745L20.7887 21.712C20.8957 21.712 20.9443 21.8809 21.0026 21.8058C21.0221 21.8621 21.1873 21.8903 21.0998 21.9466C21.4499 22.0685 21.6638 22.3031 21.936 22.275C21.8583 22.2468 22.0041 22.3406 21.936 22.3406C21.868 22.3406 21.8485 22.228 21.9069 22.3125C21.8194 22.2562 21.8777 22.3313 21.8485 22.3219C21.9263 22.3594 21.9749 22.3969 21.9944 22.3031C22.1791 22.3876 21.9944 22.5095 22.1888 22.6409C22.218 22.6127 22.2375 22.6127 22.2861 22.6597L22.3152 22.7816C22.4319 22.8661 22.4514 22.7816 22.5194 22.7535C22.5194 22.7535 22.6264 22.8849 22.5389 22.7723C22.5389 22.8098 22.5389 22.8379 22.5097 22.8567L22.6264 22.9224C22.5389 22.8755 22.5972 22.9881 22.5875 23.0162V22.9787C22.5875 22.9787 22.6361 23.0631 22.6361 23.1007C22.5875 23.1007 22.5389 23.0256 22.5194 22.9881C22.5 23.0256 22.5194 23.0819 22.5 23.1288C22.5681 23.1007 22.5875 23.2226 22.6069 23.2789C22.6653 23.3728 22.5778 23.3728 22.5875 23.4009C22.6264 23.4009 22.6361 23.4947 22.6653 23.4384C22.6653 23.4197 22.6069 23.4009 22.6264 23.3634C22.675 23.3915 22.7333 23.3728 22.7236 23.4666C22.7236 23.5323 22.5778 23.4854 22.675 23.5886C22.675 23.551 22.7042 23.5417 22.7236 23.5135L22.8111 23.6073L22.7528 23.6261C22.7528 23.6261 22.782 23.6261 22.7917 23.6261C22.7333 23.673 22.8403 23.795 22.782 23.8325C22.8014 23.8888 22.8792 23.9357 22.9084 23.9826C22.9667 24.0296 22.8986 23.9545 23.0348 24.1422C23.0639 24.1703 23.0737 24.2078 23.0834 24.2454C23.0834 24.2454 23.1806 24.3298 23.1903 24.3861C23.307 24.433 23.414 24.2829 23.4334 24.4049C23.5112 24.4799 23.4626 24.5738 23.3945 24.5738C23.6376 24.7051 23.5112 24.8271 24.0071 24.996C24.0265 25.0241 24.0071 25.0335 24.0557 25.0617C24.2113 25.1086 24.3571 25.1743 24.503 25.2306C24.571 25.2587 24.6488 25.2869 24.7169 25.3056" fill="#55585A"/>
<path d="M24.6292 24.9773V25.0148L24.6389 25.0993C24.6875 25.0336 24.707 25.0993 24.7459 25.118C24.6681 25.165 24.7848 25.2025 24.6778 25.2025C24.6195 25.1837 24.5903 25.1837 24.5806 25.118" fill="#55585A"/>
<path d="M32.0769 13.3613C30.0836 13.3613 27.7598 12.3198 27.7598 9.40167C27.7598 7.56262 28.8779 5.41394 32.038 5.41394C34.2646 5.41394 35.7815 6.38976 36.1023 8.02239L36.1704 8.3977H34.1577L34.0702 8.21004C33.9243 7.89102 33.6132 7.21546 32.2033 7.21546C29.9669 7.21546 29.7919 8.84808 29.7919 9.34537C29.7919 10.7153 30.6476 11.5222 32.0866 11.5222C33.0784 11.5222 33.691 11.2689 34.041 10.7059H31.7366V8.97944H36.1607V13.2674H34.7702L34.6925 13.061L34.5563 12.7138C34.0215 13.0235 33.2729 13.3613 32.0769 13.3613Z" fill="#55585A"/>
<path d="M50.0069 13.1924H47.4983L47.401 13.061L45.4467 10.4432H43.7548V13.1924H41.7227V5.58282H46.2926C47.7802 5.58282 49.4915 5.85493 49.4915 7.97546C49.4915 9.25154 48.6748 10.0022 47.7705 10.2555L49.6277 12.6857L50.0069 13.183V13.1924ZM43.7451 8.67918H46.0787C47.3135 8.67918 47.4497 8.46337 47.4497 8.00361C47.4497 7.54385 47.3135 7.33743 46.0787 7.33743H43.7451V8.67918Z" fill="#55585A"/>
<path d="M59.2923 13.3612C56.6281 13.3612 55.2183 12.1602 55.2183 9.88019V5.58282H57.2504V9.78636C57.2504 10.856 57.6005 11.5597 59.2923 11.5597C60.9842 11.5597 61.3342 10.8466 61.3342 9.78636V5.58282H63.3664V9.88019C63.3664 12.1602 61.9565 13.3612 59.2923 13.3612Z" fill="#55585A"/>
<path d="M71.2812 13.1924H69.249V5.58282H73.5078C74.6357 5.58282 76.9887 5.58282 76.9887 8.04114C76.9887 10.4995 74.6357 10.4901 73.5078 10.4901H71.2812V13.1924ZM71.2812 8.67918H73.8092C74.7329 8.67918 74.9566 8.54782 74.9566 8.02238C74.9566 7.49694 74.7329 7.37496 73.8092 7.37496H71.2812V8.67918Z" fill="#55585A"/>
<path d="M86.284 13.3613C82.9392 13.3613 81.7529 11.2501 81.7529 9.4392C81.7529 6.9152 83.4448 5.41394 86.284 5.41394C89.1232 5.41394 90.815 6.9152 90.815 9.4392C90.815 11.2501 89.6288 13.3613 86.284 13.3613ZM86.284 7.20607C85.5353 7.20607 83.7851 7.4125 83.7851 9.35476C83.7851 11.297 85.3505 11.5504 86.284 11.5504C87.2174 11.5504 88.7828 11.2689 88.7828 9.35476C88.7828 7.44065 87.0327 7.20607 86.284 7.20607Z" fill="#55585A"/>
<path d="M30.2588 18.1653H30.2394V25.0899H28.7031V15.9509H31.027L33.7981 22.7254L36.6081 15.9509H38.8834V25.0899H37.3471V18.1653H37.3277L34.4885 25.0899H33.1078L30.2588 18.1653Z" fill="#791B39"/>
<path d="M44.7173 15.7257C48.6163 15.7257 49.9873 18.0902 49.9873 20.5954C49.9873 22.4908 48.908 25.3244 44.7173 25.3244C40.5265 25.3244 39.4473 22.4908 39.4473 20.5954C39.4473 18.0902 40.8182 15.7257 44.7173 15.7257ZM48.2565 20.4922C48.2565 18.2872 46.7397 17.2645 44.7173 17.2645C42.6948 17.2645 41.178 18.2966 41.178 20.4922C41.178 23.0819 43.0643 23.7856 44.7173 23.7856C46.3702 23.7856 48.2565 23.0819 48.2565 20.4922Z" fill="#791B39"/>
<path d="M50.5903 15.9509H52.4183L58.3301 22.5565V15.9509H59.9927V25.0899H58.4078L52.253 18.2497V25.0899H50.5903V15.9509Z" fill="#791B39"/>
<path d="M64.329 17.4803H60.3716V15.9509H70.0073V17.4803H66.05V25.0899H64.329V17.4803Z" fill="#791B39"/>
<path d="M70.3867 15.9509H78.3209V17.4803H72.1175V19.6103H77.4555V21.1491H72.1175V23.5605H78.4667V25.0899H70.3867V15.9509Z" fill="#791B39"/>
<path d="M88.2482 21.834C88.0732 22.8568 87.3731 25.3151 83.3088 25.3151C80.5085 25.3151 78.311 23.7012 78.311 20.3703C78.311 17.7055 79.9251 15.7164 83.4449 15.7164C87.4023 15.7164 87.9857 18.3717 88.1218 18.8596H86.3911C86.2938 18.5406 85.6132 17.2458 83.5421 17.2458C81.0919 17.2458 80.0709 18.6626 80.0709 20.5673C80.0709 22.6691 81.5392 23.7763 83.4449 23.7763C85.4674 23.7763 86.3522 22.5284 86.5272 21.8246H88.2579L88.2482 21.834Z" fill="#791B39"/>
<path d="M88.8511 15.9509H94.1697C96.2602 15.9509 97.777 16.4388 97.777 18.6813C97.777 20.3703 96.6102 21.2992 95.3073 21.3742L98.0201 25.0992H95.8907L93.3238 21.5056H90.5818V25.0992H88.8511V15.9603V15.9509ZM93.9169 20.0137C95.3268 20.0137 96.0463 19.7979 96.0463 18.7189C96.0463 17.6398 95.3268 17.4334 93.9169 17.4334H90.5818V20.0137H93.9169Z" fill="#791B39"/>
<path d="M100.607 15.9509H98.876V25.0899H100.607V15.9509Z" fill="#791B39"/>
<path d="M108.784 18.7282C108.502 17.9119 107.782 17.2082 105.682 17.2082C104.515 17.2082 103.329 17.5085 103.329 18.3529C103.329 18.747 103.553 19.1598 105.312 19.385L107.403 19.7134C109.386 20.0325 110.553 20.8206 110.553 22.35C110.553 24.5175 108.56 25.315 106.197 25.315C102.395 25.315 101.472 23.3822 101.268 22.6878L102.93 22.1436C103.241 22.8098 103.903 23.7762 106.246 23.7762C107.656 23.7762 108.823 23.2977 108.823 22.5095C108.823 21.9184 108.161 21.5243 106.897 21.3648L104.778 21.0646C102.736 20.7737 101.588 19.8542 101.588 18.4655C101.588 15.7257 105.03 15.7257 105.711 15.7257C109.523 15.7257 110.174 17.546 110.398 18.1746L108.764 18.7282H108.784Z" fill="#791B39"/>
<path d="M114.268 17.4803H110.32V15.9509H119.956V17.4803H115.999V25.0899H114.268V17.4803Z" fill="#791B39"/>
<path d="M124.73 15.7257C128.629 15.7257 130 18.0902 130 20.5954C130 22.4908 128.921 25.3244 124.73 25.3244C120.539 25.3244 119.46 22.4908 119.46 20.5954C119.46 18.0902 120.831 15.7257 124.73 15.7257ZM128.269 20.4922C128.269 18.2872 126.743 17.2645 124.73 17.2645C122.717 17.2645 121.191 18.2966 121.191 20.4922C121.191 23.0819 123.077 23.7856 124.73 23.7856C126.383 23.7856 128.269 23.0819 128.269 20.4922Z" fill="#791B39"/>
<path fill-rule="evenodd" clip-rule="evenodd" d="M11.9208 0H12.6112C12.6404 0.187658 12.7862 0.093829 12.7862 0H13.1362C14.7211 1.23854 16.1505 0 18.3382 0.506676C18.6882 2.04547 20.9926 0.703717 21.2843 2.17683C22.3442 2.21436 22.9373 2.71166 23.7152 3.01191C23.861 4.32551 22.8401 4.41934 21.8094 4.18477C21.7802 4.65392 21.4205 4.9354 20.944 5.35763C19.8453 4.95417 18.9313 5.46085 18.5132 6.19271C18.7077 6.57741 19.1841 5.95814 19.3786 6.5305C19.8064 6.05197 20.2537 5.59221 20.944 5.35763C21.7219 5.49838 23.054 4.9354 24.0652 5.52653C23.8902 6.33345 24.5416 6.95273 24.0652 7.53447C24.6875 7.99423 25.864 8.43522 25.4556 9.37351C24.8722 9.31721 23.7054 8.95128 23.1998 9.37351C23.8805 9.66438 24.7555 9.76759 24.9306 10.5464C23.1804 10.8748 20.2051 9.96464 19.8939 11.5503C20.2634 11.7849 21.3038 11.2407 21.4594 10.7153C22.0525 10.8748 22.4803 11.1844 23.3651 11.0531C23.686 12.1884 24.9014 12.4699 25.7959 13.061V13.2299C22.772 15.0033 19.9717 13.3988 17.4339 14.1213C16.2282 15.4818 17.4728 18.3999 17.7159 20.1545C17.3756 20.1545 16.1991 20.0325 15.0809 20.1545C14.1183 20.2577 13.0876 20.4547 12.7862 20.4547C13.2724 18.5125 15.1976 13.9993 12.6306 13.6521C10.5596 14.703 7.37035 14.1494 5.8438 13.0516C6.32996 12.2353 7.65233 12.2353 8.78995 12.0476C8.01209 11.5316 7.37035 11.8787 6.70917 12.2165C6.47581 11.7755 5.68823 11.86 5.31874 11.5503C5.50349 10.7809 6.59249 10.8748 7.57454 10.8842C6.93281 10.4995 5.52293 10.856 5.31874 10.0491C5.62017 9.31722 6.64111 9.11079 7.2245 9.54241C7.60371 9.41104 7.66205 8.96067 7.91486 8.70733C7.44814 8.09744 6.5536 7.9004 5.48404 7.87225C5.07566 7.34681 5.52293 7.01841 4.95898 6.69939V6.0332C5.20207 6.0332 5.33819 5.95814 5.48404 5.86431C5.2993 6.65247 6.30079 5.68603 5.48404 5.86431C5.14373 5.75172 4.92981 5.1043 5.48404 5.02923C6.61194 5.47961 8.26489 5.28257 9.30528 5.19812C8.98441 5.01047 8.46908 5.00108 8.61493 4.36305C7.35091 4.68207 6.10633 4.0065 5.66878 3.02129C6.10633 2.44894 6.81613 3.14327 7.05921 2.51462C6.64111 2.36449 6.60222 1.83905 6.53415 1.34175C7.47731 0.168892 9.76228 0.29087 11.3958 0.675569C11.4444 0.337784 11.8625 0.347167 11.9208 0.0093829M11.3958 5.86431C11.493 5.51714 11.668 5.50776 11.9208 5.69542C11.9695 4.97294 11.0944 5.15121 10.8805 4.69145C10.861 5.27319 11.2208 5.47961 11.4055 5.86431M18.6785 4.86034C18.6591 5.09491 18.6493 5.33887 18.8535 5.35763C19.0869 5.15121 19.1258 4.40996 18.6785 4.86034C18.5715 4.61638 18.4646 4.87911 18.6785 4.86034ZM19.5536 5.18874C18.9605 4.75713 20.4481 4.78528 19.5536 5.18874V5.18874ZM9.83034 5.35763C10.0929 5.62035 10.5596 5.35763 10.6957 5.01985C10.2679 4.9917 9.97619 5.1043 9.83034 5.35763ZM14.0016 5.69542C13.9822 5.48899 14.2544 5.59221 14.0016 5.69542C13.5349 5.8174 14.128 4.90725 13.6516 5.02923C13.3404 5.79863 12.6015 5.12306 12.0861 5.69542C12.8154 5.62974 13.2821 6.07073 13.9919 5.69542M17.9882 6.5305C18.2021 6.23024 18.8632 5.48899 18.3382 5.01985C18.0659 5.27319 17.4534 6.05197 17.9882 6.5305ZM14.517 6.02382V6.8589C15.0031 6.99964 14.9642 6.62432 15.3823 6.69C15.4212 6.15518 14.76 6.28654 14.517 6.02382C14.41 5.77986 14.303 6.04258 14.517 6.02382ZM13.8266 6.5305C13.0876 6.5305 13.0196 7.20606 12.7862 7.70336C13.039 7.7878 13.2238 7.94731 13.4766 8.04114C13.214 7.29051 13.3793 6.96211 13.8266 6.5305C14.5947 6.55864 13.8752 5.87369 13.8266 6.5305ZM15.7324 6.86828C16.0435 7.0747 16.9867 7.54385 16.9478 6.69939C16.5005 6.54926 15.9657 6.42728 15.7324 6.86828ZM11.3958 8.04114C11.95 8.02238 12.7279 8.21003 12.6112 7.53447C12.0278 7.53447 11.6972 7.76904 11.3958 8.04114ZM8.0996 8.04114C8.08015 7.83472 8.3524 7.93793 8.0996 8.04114C7.79818 7.89102 7.56482 7.47817 7.40925 8.04114C8.03153 7.9004 8.16766 9.08264 8.62465 8.54782C8.37185 8.45399 8.19683 8.2851 8.0996 8.04114ZM17.9882 8.70733V8.53844C17.5409 8.5572 17.3853 8.84807 17.1228 9.04511C16.87 9.14832 17.1422 9.25154 17.1228 9.04511C17.677 9.18585 17.6576 8.78239 17.9882 8.70733V8.87622C18.5327 8.95128 18.4451 8.42584 18.8535 8.36954C21.2552 8.57597 18.6104 7.76904 18.3285 7.86287C18.7757 8.04114 18.0076 8.42584 17.9784 8.69794M10.5304 8.20065C9.81089 8.39769 10.5499 9.03573 10.5304 9.54241C11.2986 9.31722 11.7264 10.2743 12.2612 9.7113C11.8528 9.2703 10.861 9.3829 10.5304 8.87622V8.21003C10.3651 7.5157 11.0457 8.1725 10.5304 8.21003M8.78995 8.36954C8.92608 9.02635 9.72338 9.39228 10.1804 8.87622C9.6456 8.42584 9.26639 8.87622 8.78995 8.36954C8.68299 8.12559 8.57604 8.38831 8.78995 8.36954ZM8.61493 9.20462C8.53714 9.13894 8.73161 9.31722 8.61493 9.20462V9.20462ZM15.5573 10.0491C15.4893 9.64562 15.8782 9.68315 15.7324 9.214C15.3143 9.27968 15.3532 8.90437 14.867 9.04511C15.0226 9.45796 15.0226 10.0115 15.5573 10.0491ZM16.4324 9.88019C16.1796 9.9834 16.4519 10.0866 16.4324 9.88019C16.9769 9.78636 18.2701 9.54241 17.8229 9.04511C17.6576 9.3829 17.152 9.41104 16.6075 9.3829C16.6561 9.655 16.4422 9.67377 16.4324 9.88957M16.0824 9.88019C16.0921 9.77698 16.1116 9.68315 16.2574 9.7113C16.238 9.50487 16.2088 9.31721 15.9074 9.37351C15.9365 9.57055 15.8782 9.85204 16.0824 9.88019ZM17.9882 11.0531C18.3187 11.1281 19.0383 10.8279 18.8535 11.3908C19.4466 11.4002 19.4953 10.9029 19.7189 10.5558C19.0966 10.8842 19.0869 10.4901 18.5035 10.3869C18.6591 10.9217 17.9298 10.6121 17.9784 11.0531M13.1265 11.2219C13.7974 11.3064 14.5461 11.2126 15.2073 10.8842C14.5656 10.415 14.5656 10.978 13.6419 10.5464C13.5932 10.8842 13.2918 10.9968 13.1168 11.2126M20.244 10.5464C20.1078 10.5839 19.9036 10.5464 19.8939 10.7153C20.03 10.6777 20.2342 10.7153 20.244 10.5464ZM17.6381 11.0531C17.22 11.616 18.2215 10.6496 17.6381 11.0531V11.0531ZM12.9612 11.2219C12.3973 11.419 11.8917 10.7059 11.5708 11.2219C11.9403 11.4847 12.6793 11.7568 12.9612 11.2219ZM16.2574 11.2219C16.481 11.7474 16.6172 11.3064 17.1228 11.5597C17.0742 11.2876 17.2881 11.2689 17.2978 11.0531C16.8894 11.0531 16.7825 11.3439 16.2574 11.2219C16.2185 10.7247 15.5379 11.3815 16.2574 11.2219ZM10.8707 11.7192C10.3846 11.5691 9.12054 10.978 8.78995 11.7192C9.83034 11.5034 9.80117 12.3104 10.6957 12.2259C10.7832 12.0946 10.8805 11.9538 10.8707 11.7192C11.1721 11.7192 11.318 11.5973 11.3958 11.3815C11.2888 11.2876 10.5693 10.9874 10.5304 11.3815C10.686 11.4565 10.8416 11.5316 10.8805 11.7192M8.44964 11.7192C8.37185 11.6536 8.56631 11.8318 8.44964 11.7192V11.7192ZM19.3786 11.7192C19.3008 11.6536 19.4953 11.8318 19.3786 11.7192V11.7192ZM14.0016 13.2299C14.3128 13.38 14.4392 13.699 15.042 13.5677V12.7326C14.4586 12.6669 14.303 13.0235 14.0016 13.2393M15.9074 14.065C15.7713 13.4645 16.4422 12.9109 15.7324 12.7232C15.8393 13.1267 15.5184 13.943 15.9074 14.065Z" fill="#55585A"/>
</g>
<defs>
<clipPath id="clip0_3023_11818">
<rect width="130" height="26" fill="white"/>
</clipPath>
</defs>
</svg>
