<svg width="28" height="20" viewBox="0 0 28 20" fill="none" xmlns="http://www.w3.org/2000/svg">
<g clip-path="url(#clip0_502_496)">
<g clip-path="url(#clip1_502_496)">
<rect x="0.25" width="27.5" height="20" rx="2.5" fill="#F93939"/>
<path d="M25.131 0H2.86905C1.42259 0 0.25 1.19391 0.25 2.66667V17.3333C0.25 18.8061 1.42259 20 2.86905 20H25.131C26.5774 20 27.75 18.8061 27.75 17.3333V2.66667C27.75 1.19391 26.5774 0 25.131 0Z" fill="#F93939"/>
<path fill-rule="evenodd" clip-rule="evenodd" d="M0.25 5.33331H27.75V14.6666H0.25V5.33331Z" fill="#FFDA2C"/>
<path fill-rule="evenodd" clip-rule="evenodd" d="M12.0357 8.296V11.656C12.0357 12.5893 11.1557 13.336 10.0714 13.336H7.45232C6.37066 13.3333 5.48804 12.5827 5.48804 11.6533V8.29333C5.48804 7.53066 6.0747 6.89333 6.88137 6.68666C7.12494 5.99333 7.87399 6.61466 8.76185 6.61466C9.65494 6.61466 10.3988 5.99733 10.6423 6.688C11.4464 6.9 12.0357 7.53866 12.0357 8.296Z" fill="#D4AF2C"/>
<path fill-rule="evenodd" clip-rule="evenodd" d="M12.0356 9.33334H13.3451V13.3333H12.0356V9.33334ZM4.17847 9.33334H5.48799V13.3333H4.17847V9.33334Z" fill="#CBCBCB"/>
<path fill-rule="evenodd" clip-rule="evenodd" d="M12.0356 12H13.3451V13.3333H12.0356V12ZM4.17847 12H5.48799V13.3333H4.17847V12Z" fill="#1A47B8"/>
<path fill-rule="evenodd" clip-rule="evenodd" d="M12.0356 8H13.3451V9.33333H12.0356V8ZM4.17847 8H5.48799V9.33333H4.17847V8Z" fill="#D4AF2C"/>
<path fill-rule="evenodd" clip-rule="evenodd" d="M6.79761 8H8.10713V10H6.79761V8ZM9.41665 10.6667H10.7262V12.6667H9.41665V10.6667Z" fill="#AF010D"/>
<path fill-rule="evenodd" clip-rule="evenodd" d="M9.41675 8H10.7263V10H9.41675V8Z" fill="#AE6A3E"/>
<path fill-rule="evenodd" clip-rule="evenodd" d="M6.79761 10.6667H8.10713V12.6667H6.79761V10.6667Z" fill="#FFDA2C"/>
<path fill-rule="evenodd" clip-rule="evenodd" d="M8.10713 8.00002L6.79761 6.66669H10.7262L9.41665 8.00002H8.10713Z" fill="#AF010D"/>
<path fill-rule="evenodd" clip-rule="evenodd" d="M8.10718 5.33331H9.4167V6.66665H8.10718V5.33331Z" fill="#D4AF2C"/>
</g>
</g>
<defs>
<clipPath id="clip0_502_496">
<rect width="27.5" height="20" fill="white" transform="translate(0.25)"/>
</clipPath>
<clipPath id="clip1_502_496">
<rect x="0.25" width="27.5" height="20" rx="2.5" fill="white"/>
</clipPath>
</defs>
</svg>
