<svg width="28" height="20" viewBox="0 0 28 20" fill="none" xmlns="http://www.w3.org/2000/svg">
<g clip-path="url(#clip0_502_524)">
<g clip-path="url(#clip1_502_524)">
<rect x="0.25" width="27.5" height="20" rx="2.5" fill="white"/>
<path fill-rule="evenodd" clip-rule="evenodd" d="M0.25 0H12.0357V9.33333H0.25V0Z" fill="#1A47B8"/>
<path fill-rule="evenodd" clip-rule="evenodd" d="M12.0357 0V1.33333H27.75V0H12.0357ZM12.0357 2.66667V4H27.75V2.66667H12.0357ZM12.0357 5.33333V6.66667H27.75V5.33333H12.0357ZM12.0357 8V9.33333H27.75V8H12.0357ZM0.25 10.6667V12H27.75V10.6667H0.25ZM0.25 13.3333V14.6667H27.75V13.3333H0.25ZM0.25 16V17.3333H27.75V16H0.25ZM0.25 18.6667V20H27.75V18.6667H0.25Z" fill="#F93939"/>
<path fill-rule="evenodd" clip-rule="evenodd" d="M1.55957 1.33334V2.66668H2.86909V1.33334H1.55957ZM4.17862 1.33334V2.66668H5.48814V1.33334H4.17862ZM6.79767 1.33334V2.66668H8.10719V1.33334H6.79767ZM9.41671 1.33334V2.66668H10.7262V1.33334H9.41671ZM8.10719 2.66668V4.00001H9.41671V2.66668H8.10719ZM5.48814 2.66668V4.00001H6.79767V2.66668H5.48814ZM2.86909 2.66668V4.00001H4.17862V2.66668H2.86909ZM1.55957 4.00001V5.33334H2.86909V4.00001H1.55957ZM4.17862 4.00001V5.33334H5.48814V4.00001H4.17862ZM6.79767 4.00001V5.33334H8.10719V4.00001H6.79767ZM9.41671 4.00001V5.33334H10.7262V4.00001H9.41671ZM1.55957 6.66668V8.00001H2.86909V6.66668H1.55957ZM4.17862 6.66668V8.00001H5.48814V6.66668H4.17862ZM6.79767 6.66668V8.00001H8.10719V6.66668H6.79767ZM9.41671 6.66668V8.00001H10.7262V6.66668H9.41671ZM8.10719 5.33334V6.66668H9.41671V5.33334H8.10719ZM5.48814 5.33334V6.66668H6.79767V5.33334H5.48814ZM2.86909 5.33334V6.66668H4.17862V5.33334H2.86909Z" fill="white"/>
</g>
</g>
<defs>
<clipPath id="clip0_502_524">
<rect width="27.5" height="20" fill="white" transform="translate(0.25)"/>
</clipPath>
<clipPath id="clip1_502_524">
<rect x="0.25" width="27.5" height="20" rx="2.5" fill="white"/>
</clipPath>
</defs>
</svg>
