<svg width="32" height="32" viewBox="0 0 32 32" fill="none" xmlns="http://www.w3.org/2000/svg">
<circle cx="16" cy="16" r="16" fill="#37509E"/>
<g clip-path="url(#clip0_14_4745)">
<path d="M25.4217 18.4219L25.9869 19.0506C26.0644 19.1369 26.0855 19.2597 26.0417 19.3669L24.9308 22.0588C24.7938 22.3914 24.2904 22.2508 24.3484 21.8956L24.8932 18.575C24.9347 18.324 25.2502 18.2323 25.4209 18.4219H25.4217Z" fill="white"/>
</g>
<path d="M6.53122 18.4218L5.966 19.0505C5.8885 19.1368 5.86736 19.2595 5.9112 19.3668L7.02207 22.0587C7.15907 22.3913 7.66244 22.2507 7.60451 21.8955L7.05886 18.5749C7.01815 18.3239 6.70188 18.2322 6.53122 18.4218Z" fill="white"/>
<path d="M16.0488 8.50391C12.2265 8.50391 9.12793 11.5866 9.12793 15.3894L16.0488 18.419L22.9698 15.3894C22.9698 11.5866 19.8712 8.50391 16.0488 8.50391Z" fill="#54B25D"/>
<path fill-rule="evenodd" clip-rule="evenodd" d="M14.3064 10.7618H14.6544C14.6691 10.8599 14.7426 10.8108 14.7426 10.7618H14.9191C15.7181 11.4087 16.4386 10.7618 17.5414 11.0265C17.7179 11.8302 18.8796 11.1294 19.0266 11.8988C19.5609 11.9184 19.8599 12.1782 20.252 12.335C20.3255 13.0211 19.8109 13.0701 19.2913 12.9476C19.2766 13.1926 19.0952 13.3396 18.8551 13.5602C18.3012 13.3494 17.8404 13.6141 17.6297 13.9963C17.7277 14.1973 17.9679 13.8738 18.0659 14.1728C18.2816 13.9228 18.5071 13.6827 18.8551 13.5602C19.2472 13.6337 19.9187 13.3396 20.4285 13.6484C20.3402 14.0698 20.6687 14.3933 20.4285 14.6971C20.7422 14.9373 21.3353 15.1676 21.1294 15.6577C20.8353 15.6283 20.2471 15.4372 19.9922 15.6577C20.3353 15.8096 20.7765 15.8635 20.8647 16.2703C19.9824 16.4418 18.4825 15.9664 18.3257 16.7947C18.512 16.9172 19.0364 16.6329 19.1149 16.3585C19.4138 16.4418 19.6295 16.6035 20.0756 16.5349C20.2373 17.1279 20.85 17.2749 21.301 17.5837V17.6719C19.7766 18.5981 18.3649 17.7601 17.0856 18.1375C16.4778 18.8481 16.869 19.9904 16.9916 20.9068C16.8569 21.0415 16.6325 21.2659 16.0489 21.2659C15.5551 21.2659 15.2409 20.9966 15.1062 20.8619C15.3513 19.8475 15.9582 18.0738 14.6642 17.8924C13.6202 18.4413 12.0125 18.1522 11.2429 17.5788C11.488 17.1524 12.1546 17.1524 12.7281 17.0544C12.336 16.7849 12.0125 16.9662 11.6792 17.1426C11.5615 16.9123 11.1645 16.9564 10.9782 16.7947C11.0714 16.3928 11.6203 16.4418 12.1154 16.4467C11.7919 16.2458 11.0812 16.432 10.9782 16.0105C11.1302 15.6283 11.6448 15.5205 11.9389 15.7459C12.1301 15.6773 12.1595 15.4421 12.287 15.3097C12.0517 14.9912 11.6007 14.8883 11.0616 14.8736C10.8557 14.5991 11.0812 14.4276 10.7969 14.261V13.913C10.9194 13.913 10.988 13.8738 11.0616 13.8248C10.9684 14.2365 11.4733 13.7317 11.0616 13.8248C10.89 13.766 10.7822 13.4278 11.0616 13.3886C11.6301 13.6239 12.4634 13.521 12.9879 13.4769C12.8261 13.3788 12.5663 13.3739 12.6399 13.0407C12.0027 13.2073 11.3753 12.8545 11.1547 12.3399C11.3753 12.0409 11.7331 12.4036 11.8556 12.0752C11.6448 11.9968 11.6252 11.7224 11.5909 11.4626C12.0664 10.8501 13.2183 10.9138 14.0417 11.1147C14.0662 10.9383 14.277 10.9432 14.3064 10.7667M14.0417 13.8248C14.0907 13.6435 14.179 13.6386 14.3064 13.7366C14.3309 13.3592 13.8898 13.4524 13.7819 13.2122C13.7721 13.5161 13.9535 13.6239 14.0466 13.8248M17.713 13.3004C17.7032 13.4229 17.6983 13.5504 17.8012 13.5602C17.9189 13.4524 17.9385 13.0652 17.713 13.3004C17.6591 13.173 17.6052 13.3102 17.713 13.3004ZM18.1541 13.472C17.8551 13.2465 18.6051 13.2612 18.1541 13.472V13.472ZM13.2526 13.5602C13.3849 13.6974 13.6202 13.5602 13.6888 13.3837C13.4731 13.369 13.3261 13.4278 13.2526 13.5602ZM15.3553 13.7366C15.3455 13.6288 15.4828 13.6827 15.3553 13.7366C15.1201 13.8003 15.4191 13.3249 15.1789 13.3886C15.022 13.7905 14.6495 13.4377 14.3897 13.7366C14.7573 13.7023 14.9926 13.9326 15.3504 13.7366M17.365 14.1728C17.4728 14.0159 17.8061 13.6288 17.5414 13.3837C17.4042 13.5161 17.0954 13.9228 17.365 14.1728ZM15.6151 13.9081V14.3443C15.8602 14.4178 15.8406 14.2218 16.0514 14.2561C16.071 13.9767 15.7377 14.0453 15.6151 13.9081C15.5612 13.7807 15.5073 13.9179 15.6151 13.9081ZM15.2671 14.1728C14.8946 14.1728 14.8603 14.5256 14.7426 14.7854C14.8701 14.8295 14.9632 14.9128 15.0907 14.9618C14.9583 14.5697 15.0416 14.3982 15.2671 14.1728C15.6543 14.1875 15.2916 13.8297 15.2671 14.1728ZM16.2278 14.3492C16.3847 14.457 16.8601 14.702 16.8405 14.261C16.615 14.1826 16.3455 14.1189 16.2278 14.3492ZM14.0417 14.9618C14.3211 14.952 14.7132 15.05 14.6544 14.6971C14.3603 14.6971 14.1937 14.8197 14.0417 14.9618ZM12.3801 14.9618C12.3703 14.854 12.5075 14.9079 12.3801 14.9618C12.2281 14.8834 12.1105 14.6677 12.0321 14.9618C12.3458 14.8883 12.4144 15.5058 12.6448 15.2264C12.5173 15.1774 12.4291 15.0892 12.3801 14.9618ZM17.365 15.3097V15.2215C17.1395 15.2313 17.0611 15.3832 16.9287 15.4862C16.8013 15.5401 16.9386 15.594 16.9287 15.4862C17.2081 15.5597 17.1983 15.3489 17.365 15.3097V15.398C17.6395 15.4372 17.5954 15.1627 17.8012 15.1333C19.0119 15.2411 17.6787 14.8197 17.5365 14.8687C17.762 14.9618 17.3748 15.1627 17.3601 15.3048M13.6055 15.0451C13.2428 15.148 13.6153 15.4813 13.6055 15.7459C13.9927 15.6283 14.2084 16.1282 14.478 15.8341C14.2721 15.6038 13.7721 15.6626 13.6055 15.398V15.05C13.5222 14.6873 13.8653 15.0304 13.6055 15.05M12.7281 15.1333C12.7967 15.4764 13.1986 15.6675 13.429 15.398C13.1594 15.1627 12.9683 15.398 12.7281 15.1333C12.6742 15.0059 12.6203 15.1431 12.7281 15.1333ZM12.6399 15.5695C12.6007 15.5352 12.6987 15.6283 12.6399 15.5695V15.5695ZM16.1396 16.0105C16.1053 15.7998 16.3013 15.8194 16.2278 15.5744C16.0171 15.6087 16.0367 15.4127 15.7916 15.4862C15.87 15.7018 15.87 15.9909 16.1396 16.0105ZM16.5807 15.9223C16.4533 15.9762 16.5905 16.0301 16.5807 15.9223C16.8552 15.8733 17.5071 15.7459 17.2817 15.4862C17.1983 15.6626 16.9435 15.6773 16.669 15.6626C16.6935 15.8047 16.5856 15.8145 16.5807 15.9272M16.4043 15.9223C16.4092 15.8684 16.419 15.8194 16.4925 15.8341C16.4827 15.7263 16.468 15.6283 16.3161 15.6577C16.3308 15.7606 16.3013 15.9076 16.4043 15.9223ZM17.365 16.5349C17.5316 16.5741 17.8944 16.4173 17.8012 16.7114C18.1002 16.7163 18.1247 16.4565 18.2375 16.2752C17.9238 16.4467 17.9189 16.2409 17.6248 16.187C17.7032 16.4663 17.3356 16.3046 17.3601 16.5349M14.9142 16.6231C15.2524 16.6672 15.6298 16.6182 15.9631 16.4467C15.6396 16.2017 15.6396 16.4957 15.174 16.2703C15.1495 16.4467 14.9975 16.5055 14.9093 16.6182M18.5022 16.2703C18.4335 16.2899 18.3306 16.2703 18.3257 16.3585C18.3943 16.3389 18.4973 16.3585 18.5022 16.2703ZM17.1885 16.5349C16.9778 16.829 17.4826 16.3242 17.1885 16.5349V16.5349ZM14.8309 16.6231C14.5466 16.7261 14.2917 16.3536 14.1299 16.6231C14.3162 16.7604 14.6887 16.9025 14.8309 16.6231ZM16.4925 16.6231C16.6052 16.8976 16.6739 16.6672 16.9287 16.7996C16.9042 16.6574 17.0121 16.6476 17.017 16.5349C16.8111 16.5349 16.7572 16.6868 16.4925 16.6231C16.4729 16.3634 16.1298 16.7065 16.4925 16.6231ZM13.777 16.8829C13.532 16.8045 12.8947 16.4957 12.7281 16.8829C13.2526 16.7702 13.2379 17.1916 13.6888 17.1475C13.7329 17.0789 13.7819 17.0054 13.777 16.8829C13.929 16.8829 14.0025 16.8192 14.0417 16.7065C13.9878 16.6574 13.6251 16.5006 13.6055 16.7065C13.6839 16.7457 13.7623 16.7849 13.7819 16.8829M12.5565 16.8829C12.5173 16.8486 12.6154 16.9417 12.5565 16.8829V16.8829ZM18.0659 16.8829C18.0267 16.8486 18.1247 16.9417 18.0659 16.8829V16.8829ZM15.3553 17.6719C15.5122 17.7503 15.5759 17.9169 15.8798 17.8483V17.4122C15.5857 17.3779 15.5073 17.5641 15.3553 17.6768M16.3161 18.1081C16.2474 17.7944 16.5856 17.5053 16.2278 17.4073C16.2817 17.618 16.12 18.0444 16.3161 18.1081Z" fill="#37509E"/>
<path d="M17.3476 20.5082L19.9641 21.9513C20.0387 21.9925 20.129 21.9905 20.2016 21.9474L22.9232 20.3396C23.0841 20.2445 23.0782 20.0092 22.9124 19.922L20.2026 18.5034C20.129 18.4642 20.0397 18.4671 19.968 18.5103L17.3397 20.0935C16.5978 20.5053 17.1866 20.418 17.3476 20.5072V20.5082Z" stroke="white" stroke-width="0.883521" stroke-linecap="round" stroke-linejoin="round"/>
<path d="M14.8471 20.5082L12.2306 21.9513C12.156 21.9925 12.0657 21.9905 11.9931 21.9474L9.27154 20.3396C9.11058 20.2445 9.11647 20.0092 9.28233 19.922L11.9921 18.5034C12.0657 18.4642 12.155 18.4671 12.2267 18.5103L15.0787 20.2288C15.2367 20.3239 15.0091 20.419 14.8481 20.5082H14.8471Z" stroke="white" stroke-width="0.883521" stroke-linecap="round" stroke-linejoin="round"/>
<path d="M16.98 20.3082L17.8966 25.8149C17.9133 25.9129 17.8662 26.0109 17.7808 26.0609L16.2056 26.9707C16.134 27.0119 16.0456 27.0138 15.972 26.9736L14.387 26.1168C14.2967 26.0678 14.2476 25.9678 14.2653 25.8668L15.2104 20.3082" stroke="white" stroke-width="0.883521" stroke-linecap="round" stroke-linejoin="round"/>
<path d="M14.1838 19.1337L12.589 17.8505C12.5468 17.8161 12.4938 17.7975 12.4388 17.7975H8.07338C8.03216 17.7975 7.99094 17.7867 7.95561 17.7661L6.93491 17.1868C6.82401 17.124 6.71507 17.273 6.80929 17.3583L8.23925 18.6661C8.28341 18.7063 8.34132 18.7288 8.40119 18.7288H11.4407C11.4662 18.7288 11.4918 18.7328 11.5153 18.7406L13.9581 19.5465C14.2113 19.6298 14.3899 19.3004 14.1829 19.1337H14.1838Z" fill="white"/>
<path d="M17.3234 19.5896L19.5208 17.822C19.5395 17.8063 19.564 17.7985 19.5876 17.7985H24.0002C24.0414 17.7985 24.0826 17.7877 24.1179 17.7671L25.1386 17.1877C25.2495 17.125 25.3585 17.274 25.2643 17.3593L23.796 18.7014C23.7764 18.719 23.7509 18.7298 23.7234 18.7298H20.6112C20.5995 18.7298 20.5887 18.7318 20.5779 18.7347L17.4235 19.7739C17.3106 19.8112 17.2302 19.6641 17.3224 19.5886L17.3234 19.5896Z" fill="white"/>
<path d="M6.77441 15.2526C6.77441 10.143 10.922 6 16.0373 6C21.1525 6 25.3001 10.143 25.3001 15.2526" stroke="white" stroke-width="0.883521" stroke-linecap="round" stroke-linejoin="round"/>
<defs>
<clipPath id="clip0_14_4745">
<rect width="16.9832" height="3.92676" fill="white" transform="translate(9.12793 18.3208)"/>
</clipPath>
</defs>
</svg>
