<svg width="206" height="206" viewBox="0 0 206 206" fill="none" xmlns="http://www.w3.org/2000/svg">
<path d="M205.143 189.725C210.111 179.893 195.911 130.731 97.4536 130.731C26.3868 130.731 -6.2309 170.971 0.980222 191.364" fill="url(#paint0_radial_2041_7802)"/>
<mask id="mask0_2041_7802" style="mask-type:luminance" maskUnits="userSpaceOnUse" x="0" y="130" width="206" height="62">
<path d="M205.143 189.725C210.111 179.893 195.911 130.731 97.4536 130.731C26.3868 130.731 -6.2309 170.971 0.980222 191.364" fill="white"/>
</mask>
<g mask="url(#mask0_2041_7802)">
<ellipse opacity="0.671968" cx="82.2692" cy="158.3" rx="5.41472" ry="3.00761" fill="url(#paint1_linear_2041_7802)"/>
<ellipse opacity="0.451707" cx="140.067" cy="165.53" rx="8.54322" ry="4.69187" fill="url(#paint2_linear_2041_7802)"/>
</g>
<rect x="126.296" y="29.1918" width="1.58462" height="14.2615" transform="rotate(13 126.296 29.1918)" fill="url(#paint3_linear_2041_7802)"/>
<ellipse cx="123.176" cy="47.9869" rx="18.6192" ry="13.4692" transform="rotate(13 123.176 47.9869)" fill="url(#paint4_linear_2041_7802)"/>
<ellipse cx="120.206" cy="59.0919" rx="49.9154" ry="17.8269" transform="rotate(13 120.206 59.0919)" fill="#E7EAEE"/>
<ellipse cx="119.85" cy="60.6363" rx="49.9154" ry="17.8269" transform="rotate(13 119.85 60.6363)" fill="url(#paint5_linear_2041_7802)"/>
<ellipse cx="116.939" cy="69.7215" rx="19.8077" ry="6.73462" transform="rotate(13 116.939 69.7215)" fill="white"/>
<circle cx="127.247" cy="28.5978" r="2.37692" transform="rotate(13 127.247 28.5978)" fill="#D8D8D8"/>
<circle cx="156.698" cy="63.0445" r="3.16923" transform="rotate(13 156.698 63.0445)" fill="#F9FBFF"/>
<circle cx="110.675" cy="47.5408" r="3.16923" transform="rotate(13 110.675 47.5408)" fill="#F9FBFF"/>
<circle cx="134.608" cy="53.0657" r="3.16923" transform="rotate(13 134.608 53.0657)" fill="#F9FBFF"/>
<circle cx="86.4464" cy="46.8253" r="3.16923" transform="rotate(13 86.4464 46.8253)" fill="#F9FBFF"/>
<path fill-rule="evenodd" clip-rule="evenodd" d="M136.117 74.5542C136.168 74.4315 136.209 74.3054 136.239 74.1758C137.075 70.5517 129.113 65.6189 118.454 63.158C107.795 60.6972 98.4753 61.6402 97.6386 65.2643C97.6087 65.3938 97.5901 65.5251 97.5824 65.6578L97.5494 65.6502L57.876 142.795L127.356 158.836L136.149 74.5617L136.117 74.5542Z" fill="url(#paint6_linear_2041_7802)"/>
<ellipse opacity="0.328544" cx="103.396" cy="139.049" rx="13.8654" ry="2.77308" fill="url(#paint7_linear_2041_7802)"/>
<path d="M45.9535 117.805C45.9535 117.805 50.8507 126.416 52.075 132.497C52.075 137.355 49.0143 138.618 45.9535 138.618C42.8928 138.618 39.832 137.355 39.832 132.497C41.0563 126.988 45.9535 117.805 45.9535 117.805Z" fill="#E5EAEF"/>
<path d="M45.9531 135.088C45.9531 134.869 46.1305 134.692 46.3493 134.692C46.5681 134.692 46.7454 134.869 46.7454 135.088V146.576H45.9531V135.088Z" fill="#CFD6DB"/>
<g opacity="0.796852">
<path d="M154.897 115.326C154.897 115.326 158.876 122.307 159.87 127.238C159.87 131.177 157.383 132.201 154.897 132.201C152.41 132.201 149.923 131.177 149.923 127.238C150.918 122.771 154.897 115.326 154.897 115.326Z" fill="#E5EAEF"/>
<path d="M154.897 129.339C154.897 129.162 155.041 129.017 155.219 129.017C155.397 129.017 155.541 129.162 155.541 129.339V138.654H154.897V129.339Z" fill="#CFD6DB"/>
</g>
<defs>
<radialGradient id="paint0_radial_2041_7802" cx="0" cy="0" r="1" gradientUnits="userSpaceOnUse" gradientTransform="translate(89.3429 151.758) rotate(-90) scale(35.2537 368.189)">
<stop stop-color="#EBEDF0" stop-opacity="0.24"/>
<stop offset="0.536775" stop-color="#EBEDF0" stop-opacity="0.845525"/>
<stop offset="1" stop-color="#E0E4E7" stop-opacity="0.01"/>
</radialGradient>
<linearGradient id="paint1_linear_2041_7802" x1="77.9108" y1="157.503" x2="79.5604" y2="161.031" gradientUnits="userSpaceOnUse">
<stop stop-color="#E1E7EA"/>
<stop offset="1" stop-color="#D0D6DC"/>
</linearGradient>
<linearGradient id="paint2_linear_2041_7802" x1="132.893" y1="165.091" x2="135.912" y2="171.387" gradientUnits="userSpaceOnUse">
<stop stop-color="#E1E7EA"/>
<stop offset="1" stop-color="#D0D6DC"/>
</linearGradient>
<linearGradient id="paint3_linear_2041_7802" x1="128.429" y1="29.2335" x2="126.347" y2="29.1913" gradientUnits="userSpaceOnUse">
<stop stop-color="#F8FBFF"/>
<stop offset="1" stop-color="#D9DDE2"/>
</linearGradient>
<linearGradient id="paint4_linear_2041_7802" x1="93.4258" y1="55.1273" x2="128.173" y2="66.0874" gradientUnits="userSpaceOnUse">
<stop stop-color="#F8FBFF"/>
<stop offset="1" stop-color="#D9DDE2"/>
</linearGradient>
<linearGradient id="paint5_linear_2041_7802" x1="51.3836" y1="92.7348" x2="102.368" y2="35.284" gradientUnits="userSpaceOnUse">
<stop stop-color="#F8FBFF"/>
<stop offset="1" stop-color="#D9DDE2"/>
</linearGradient>
<linearGradient id="paint6_linear_2041_7802" x1="123.998" y1="149.469" x2="150.296" y2="65.4381" gradientUnits="userSpaceOnUse">
<stop stop-color="#F8FBFF" stop-opacity="0.2"/>
<stop offset="1" stop-color="#D9DDE2" stop-opacity="0.6"/>
</linearGradient>
<linearGradient id="paint7_linear_2041_7802" x1="92.9886" y1="139.378" x2="97.7799" y2="149.608" gradientUnits="userSpaceOnUse">
<stop stop-color="#C4CDD1"/>
<stop offset="1" stop-color="#C6CFD3" stop-opacity="0.01"/>
</linearGradient>
</defs>
</svg>
