<svg width="32" height="32" viewBox="0 0 32 32" fill="none" xmlns="http://www.w3.org/2000/svg">
<path d="M17.4582 22.8966L16.5998 23.0194V23.8866V27.2V28.2H17.5998H22.3998C22.7312 28.2 22.9998 28.4686 22.9998 28.8C22.9998 29.1313 22.7312 29.4 22.3998 29.4L9.5998 29.4C9.26844 29.4 8.9998 29.1313 8.9998 28.8C8.9998 28.4686 9.26843 28.2 9.5998 28.2H14.3998H15.3998V27.2V23.8866V23.0194L14.5414 22.8966C9.59928 22.1897 5.7998 17.9377 5.7998 12.8C5.7998 12.4686 6.06843 12.2 6.3998 12.2C6.73118 12.2 6.9998 12.4686 6.9998 12.8C6.9998 17.7705 11.0292 21.8 15.9998 21.8C20.9704 21.8 24.9998 17.7705 24.9998 12.8C24.9998 12.4686 25.2684 12.2 25.5998 12.2C25.9312 12.2 26.1998 12.4686 26.1998 12.8C26.1998 17.9377 22.4003 22.1897 17.4582 22.8966ZM12.1998 6.39998C12.1998 4.30129 13.9011 2.59998 15.9998 2.59998C18.0985 2.59998 19.7998 4.30129 19.7998 6.39998V12.8C19.7998 14.8987 18.0985 16.6 15.9998 16.6C13.9011 16.6 12.1998 14.8987 12.1998 12.8L12.1998 6.39998Z" fill="#54B25D" stroke="#54B25D" stroke-width="2" stroke-linecap="round"/>
</svg>
