<svg width="13" height="12" viewBox="0 0 13 12" fill="none" xmlns="http://www.w3.org/2000/svg">
<path d="M2.5 5.99967L1.16667 5.99967M2.5 5.99967C2.5 6.73605 3.09695 7.33301 3.83333 7.33301C4.56971 7.33301 5.16667 6.73605 5.16667 5.99967M2.5 5.99967C2.5 5.2633 3.09695 4.66634 3.83333 4.66634C4.56971 4.66634 5.16667 5.26329 5.16667 5.99967M10.5 9.99967C10.5 9.26329 9.90305 8.66634 9.16667 8.66634C8.43029 8.66634 7.83333 9.26329 7.83333 9.99967M10.5 9.99967C10.5 10.7361 9.90305 11.333 9.16667 11.333C8.43029 11.333 7.83333 10.7361 7.83333 9.99967M10.5 9.99967L11.8333 9.99967M7.83333 9.99967L1.16667 9.99967M5.16667 5.99967L11.8333 5.99967M10.5 1.99967C10.5 1.26329 9.90305 0.666341 9.16667 0.666341C8.43029 0.666341 7.83333 1.2633 7.83333 1.99967M10.5 1.99967C10.5 2.73605 9.90305 3.33301 9.16667 3.33301C8.43029 3.33301 7.83333 2.73605 7.83333 1.99967M10.5 1.99967L11.8333 1.99967M7.83333 1.99967L1.16667 1.99968" stroke="#3B3B3B" stroke-linecap="round" stroke-linejoin="round"/>
</svg>
