<svg width="24" height="24" viewBox="0 0 24 24" fill="none" xmlns="http://www.w3.org/2000/svg">
<path d="M14 15H17M5 20H19C20.1046 20 21 19.1046 21 18V6C21 4.89543 20.1046 4 19 4H5C3.89543 4 3 4.89543 3 6V18C3 19.1046 3.89543 20 5 20Z" stroke="white" stroke-linecap="round" stroke-linejoin="round"/>
<path d="M5.84 16.08C5.68 16.08 5.55 16.0433 5.45 15.97C5.35667 15.8967 5.3 15.8 5.28 15.68C5.26 15.5533 5.28333 15.4133 5.35 15.26L7.99 9.41C8.07667 9.21667 8.18 9.08 8.3 9C8.42667 8.91333 8.57 8.87 8.73 8.87C8.88333 8.87 9.02 8.91333 9.14 9C9.26667 9.08 9.37333 9.21667 9.46 9.41L12.11 15.26C12.1833 15.4133 12.21 15.5533 12.19 15.68C12.17 15.8067 12.1133 15.9067 12.02 15.98C11.9267 16.0467 11.8033 16.08 11.65 16.08C11.4633 16.08 11.3167 16.0367 11.21 15.95C11.11 15.8567 11.02 15.7167 10.94 15.53L10.29 14.02L10.83 14.37H6.61L7.15 14.02L6.51 15.53C6.42333 15.7233 6.33333 15.8633 6.24 15.95C6.14667 16.0367 6.01333 16.08 5.84 16.08ZM8.71 10.34L7.31 13.67L7.05 13.35H10.39L10.14 13.67L8.73 10.34H8.71Z" fill="white"/>
</svg>
