<svg width="176" height="176" viewBox="0 0 176 176" fill="none" xmlns="http://www.w3.org/2000/svg">
<path d="M175.268 162.096C179.513 153.695 167.381 111.693 83.2613 111.693C22.5441 111.693 -5.32349 146.072 0.837471 163.496" fill="url(#paint0_radial_48_5880)"/>
<mask id="mask0_48_5880" style="mask-type:luminance" maskUnits="userSpaceOnUse" x="0" y="111" width="176" height="53">
<path d="M175.268 162.096C179.513 153.695 167.381 111.693 83.2613 111.693C22.5441 111.693 -5.32349 146.072 0.837471 163.496" fill="white"/>
</mask>
<g mask="url(#mask0_48_5880)">
<ellipse opacity="0.671968" cx="70.2863" cy="135.247" rx="4.62617" ry="2.56961" fill="url(#paint1_linear_48_5880)"/>
<ellipse opacity="0.729957" cx="117.505" cy="131.325" rx="7.29907" ry="4.00859" fill="url(#paint2_linear_48_5880)"/>
<ellipse opacity="0.729957" cx="34.4397" cy="120.635" rx="7.29907" ry="4.00859" fill="url(#paint3_linear_48_5880)"/>
</g>
<g opacity="0.320685">
<ellipse cx="136.51" cy="41.633" rx="4.93458" ry="4.93365" fill="url(#paint4_linear_48_5880)"/>
<path d="M141.001 44.6441C139.595 44.5792 137.756 44.1726 135.872 43.487C133.988 42.8015 132.318 41.9312 131.2 41.0776C130.727 40.7171 130.383 40.3803 130.189 40.1065C130.246 40.0918 130.31 40.0777 130.382 40.0651C130.924 39.9697 131.716 39.9831 132.659 40.1161L133.004 37.673C130.27 37.2877 128.287 37.6363 127.716 39.2065C126.884 41.4904 130.27 44.074 135.028 45.8056C139.787 47.5372 144.041 47.7338 144.873 45.45C145.456 43.8484 144.179 42.5831 141.467 40.9047L140.169 43.0027C141.091 43.5736 141.78 44.078 142.199 44.4932C142.228 44.5222 142.256 44.5503 142.281 44.5774C141.963 44.6427 141.526 44.6684 141.001 44.6441Z" fill="url(#paint5_linear_48_5880)"/>
<path d="M141.454 41.633C141.454 38.9082 139.244 36.6993 136.519 36.6993C133.794 36.6993 132.087 38.4414 131.734 40.4057C131.734 40.4057 134.571 42.1816 135.881 42.5632C136.299 42.685 136.713 42.8429 137.134 42.9829C137.606 43.1395 138.086 43.2776 138.572 43.3974C138.905 43.4794 139.361 43.6061 139.787 43.6853C140.348 43.7897 140.851 43.8363 140.89 43.8363C140.96 43.8363 141.036 43.526 141.193 43.1645C141.35 42.803 141.454 41.633 141.454 41.633Z" fill="url(#paint6_linear_48_5880)"/>
</g>
<circle opacity="0.418364" cx="28.0937" cy="70.7382" r="5.75385" fill="url(#paint7_linear_48_5880)"/>
<path d="M62.3057 15.4252H64.3364V118.656C64.3364 119.217 63.8818 119.671 63.321 119.671C62.7603 119.671 62.3057 119.217 62.3057 118.656V15.4252Z" fill="#D8D8D8"/>
<path d="M62.2773 15.4857L74.7377 18.4494C79.3277 19.5412 84.1635 18.759 88.1752 16.2758C93.8353 12.7724 100.758 11.9616 107.075 14.0624L111.354 15.4857L107.97 40.8112L107.017 40.4225C100.888 37.9217 93.8891 38.8926 88.6722 42.9673C84.4972 46.2282 78.8827 46.9697 74.0043 44.9046L62.2773 39.9405V15.4857Z" fill="#57E426"/>
<path d="M92.3264 21.4247C93.0017 20.6586 94.1646 20.5977 94.9163 21.2889C95.6599 21.9726 95.7208 23.1354 95.0528 23.8931L83.8993 36.5429C83.5715 36.9147 83.116 37.1319 82.633 37.1572C82.1499 37.1826 81.6743 37.0142 81.3094 36.6787L74.7785 30.6739C74.0349 29.9902 73.974 28.8274 74.642 28.0697C75.3174 27.3037 76.4802 27.2428 77.2319 27.9339L82.3986 32.6844L92.3264 21.4247Z" fill="white"/>
<mask id="mask1_48_5880" style="mask-type:luminance" maskUnits="userSpaceOnUse" x="74" y="20" width="22" height="18">
<path d="M92.3264 21.4247C93.0017 20.6586 94.1646 20.5977 94.9163 21.2889C95.6599 21.9726 95.7208 23.1354 95.0528 23.8931L83.8993 36.5429C83.5715 36.9147 83.116 37.1319 82.633 37.1572C82.1499 37.1826 81.6743 37.0142 81.3094 36.6787L74.7785 30.6739C74.0349 29.9902 73.974 28.8274 74.642 28.0697C75.3174 27.3037 76.4802 27.2428 77.2319 27.9339L82.3986 32.6844L92.3264 21.4247Z" fill="white"/>
</mask>
<g mask="url(#mask1_48_5880)">
<path opacity="0.8" d="M82.4816 32.5772L78.1489 37.2103L73.4088 34.0694L80.1702 27.2755L82.4816 32.5772Z" fill="url(#paint8_linear_48_5880)"/>
</g>
<path d="M61.8711 79.5808C61.8711 79.5808 62.8865 79.0732 62.8865 79.2424C62.8865 79.4116 62.8865 81.2731 62.8865 81.2731L62.2096 81.6116L61.8711 79.5808Z" fill="#FFE9E9"/>
<defs>
<radialGradient id="paint0_radial_48_5880" cx="0" cy="0" r="1" gradientUnits="userSpaceOnUse" gradientTransform="translate(76.3318 129.658) rotate(-90) scale(30.1196 314.57)">
<stop stop-color="#EBEDF0" stop-opacity="0.24"/>
<stop offset="0.536775" stop-color="#EBEDF0" stop-opacity="0.845525"/>
<stop offset="1" stop-color="#E0E4E7" stop-opacity="0.01"/>
</radialGradient>
<linearGradient id="paint1_linear_48_5880" x1="66.5627" y1="134.566" x2="67.972" y2="137.58" gradientUnits="userSpaceOnUse">
<stop stop-color="#E1E7EA"/>
<stop offset="1" stop-color="#D0D6DC"/>
</linearGradient>
<linearGradient id="paint2_linear_48_5880" x1="111.376" y1="130.95" x2="113.955" y2="136.329" gradientUnits="userSpaceOnUse">
<stop stop-color="#E1E7EA"/>
<stop offset="1" stop-color="#D0D6DC"/>
</linearGradient>
<linearGradient id="paint3_linear_48_5880" x1="29.7857" y1="120.699" x2="31.2449" y2="126.513" gradientUnits="userSpaceOnUse">
<stop stop-color="#FBFBFB"/>
<stop offset="1" stop-color="#D9DFE3"/>
</linearGradient>
<linearGradient id="paint4_linear_48_5880" x1="129.769" y1="38.2357" x2="132.236" y2="46.7659" gradientUnits="userSpaceOnUse">
<stop stop-color="#ECECEC"/>
<stop offset="0.717538" stop-color="#E1E7EA"/>
<stop offset="1" stop-color="#BCC3CA"/>
</linearGradient>
<linearGradient id="paint5_linear_48_5880" x1="131.86" y1="43.5619" x2="143.957" y2="47.9649" gradientUnits="userSpaceOnUse">
<stop stop-color="#BAC6D2"/>
<stop offset="1" stop-color="#7F8F9F"/>
</linearGradient>
<linearGradient id="paint6_linear_48_5880" x1="134.694" y1="41.2084" x2="136.308" y2="44.4681" gradientUnits="userSpaceOnUse">
<stop stop-color="#E1E7EA"/>
<stop offset="1" stop-color="#D0D6DC"/>
</linearGradient>
<linearGradient id="paint7_linear_48_5880" x1="35.6581" y1="72.446" x2="29.9126" y2="62.743" gradientUnits="userSpaceOnUse">
<stop stop-color="#DAE2E6"/>
<stop offset="0.58" stop-color="#E3EBEF"/>
<stop offset="1" stop-color="#EDF6F9"/>
</linearGradient>
<linearGradient id="paint8_linear_48_5880" x1="75.5786" y1="32.3517" x2="79.9608" y2="35.443" gradientUnits="userSpaceOnUse">
<stop stop-color="#67D666" stop-opacity="0.01"/>
<stop offset="1" stop-color="#67D666" stop-opacity="0.2"/>
</linearGradient>
</defs>
</svg>
